# xmcd
#
# Track frame offsets:
#	150
#	3077
#	17680
#	52965
#	66631
#	80506
#	128788
#	144804
#	168584
#	189781
#	224154
#	246783
#	277532
#	300840
#	340173
#
# Disc length: 4726 seconds
#
# Revision: 1
# Processed by: cddbd v1.5.2PL0 Copyright (c) Steve Scherf et al.
# Submitted via: audiograbber 1.83.01
#
DISCID=c112740f
DTITLE=Grateful Dead - 73-08-01A Roosevelt Stadium, Jersey City NJ
DYEAR=1900
DGENRE=
TTITLE0=Phil's Announcements
TTITLE1=Promised Land
TTITLE2=Sugaree
TTITLE3=The Race Is On
TTITLE4=You Ain't Woman Enough
TTITLE5=Bird Song
TTITLE6=Mexicali Blues
TTITLE7=They Love Each Other
TTITLE8=Jack Straw
TTITLE9=Stella Blue
TTITLE10=Big River
TTITLE11=Casey Jones
TTITLE12=Around and Around
TTITLE13=Mississippi Half-Step
TTITLE14=Me and My Uncle
EXTD=
EXTT0=
EXTT1=
EXTT2=
EXTT3=
EXTT4=
EXTT5=
EXTT6=
EXTT7=
EXTT8=
EXTT9=
EXTT10=
EXTT11=
EXTT12=
EXTT13=
EXTT14=
PLAYORDER=
